<svg width="38" height="37" viewBox="0 0 38 37" fill="none" xmlns="http://www.w3.org/2000/svg">
<path d="M15.5563 30.6406L26.6 17.7291H19.475L20.9 6.70621L10.8854 20.8125H16.9813L15.5563 30.6406ZM14.25 23.125H8.58959C8.11797 23.125 7.76916 22.9194 7.54317 22.5083C7.31717 22.0972 7.34931 21.6989 7.63959 21.3135L21.0188 2.50516C21.2299 2.22253 21.4938 2.02982 21.8104 1.92704C22.1271 1.82426 22.4438 1.83711 22.7604 1.96558C23.0771 2.09405 23.3278 2.30179 23.5125 2.5888C23.6972 2.87581 23.7632 3.18196 23.7104 3.50725L22.1667 15.4166H29.1333C29.6443 15.4166 30.0029 15.635 30.2093 16.0718C30.4156 16.5086 30.3604 16.9197 30.0438 17.3052L15.3583 34.4562C15.1356 34.7107 14.8622 34.8771 14.5381 34.9554C14.2141 35.0337 13.907 35.0054 13.6167 34.8705C13.3264 34.7356 13.0955 34.5285 12.924 34.249C12.7524 33.9696 12.6931 33.6661 12.7458 33.3385L14.25 23.125Z" fill="url(#paint0_linear_22_2)"/>
<defs>
<linearGradient id="paint0_linear_22_2" x1="18.8631" y1="1.85852" x2="18.8631" y2="34.9986" gradientUnits="userSpaceOnUse">
<stop stop-color="#00A224"/>
<stop offset="1" stop-color="#007B1B"/>
</linearGradient>
</defs>
</svg>
