<svg width="36" height="39" viewBox="0 0 36 39" fill="none" xmlns="http://www.w3.org/2000/svg">
<path d="M9.3 26.8125C10.6392 26.8125 11.9427 26.9818 13.2106 27.3203C14.4785 27.6589 15.725 28.1667 16.95 28.8438V11.4969C15.825 10.6844 14.6048 10.0547 13.2893 9.60781C11.9738 9.16094 10.6441 8.9375 9.3 8.9375C8.35 8.9375 7.41875 9.06615 6.50625 9.32344C5.59375 9.58073 4.675 9.89896 3.75 10.2781V27.9094C4.525 27.5302 5.40625 27.2526 6.39375 27.0766C7.38125 26.9005 8.35 26.8125 9.3 26.8125ZM19.2 28.8438C20.45 28.1667 21.675 27.6589 22.875 27.3203C24.075 26.9818 25.35 26.8125 26.7 26.8125C27.65 26.8125 28.6313 26.8938 29.6438 27.0563C30.6563 27.2188 31.525 27.4354 32.25 27.7063V10.2781C31.4 9.81771 30.5022 9.47917 29.5567 9.2625C28.6111 9.04583 27.6589 8.9375 26.7 8.9375C25.35 8.9375 24.0438 9.16094 22.7813 9.60781C21.5188 10.0547 20.325 10.6844 19.2 11.4969V28.8438ZM18.075 32.0531C17.8866 32.0531 17.7082 32.0328 17.5399 31.9922C17.3716 31.9516 17.225 31.8771 17.1 31.7688C15.925 30.9833 14.6769 30.374 13.3557 29.9406C12.0345 29.5073 10.6826 29.2906 9.3 29.2906C8.38658 29.2906 7.48948 29.4125 6.6087 29.6563C5.7279 29.9 4.85 30.1979 3.975 30.55C3.3975 30.8479 2.84063 30.8073 2.30438 30.4281C1.76813 30.049 1.5 29.5073 1.5 28.8031V9.99375C1.5 9.5875 1.5875 9.2151 1.7625 8.87656C1.9375 8.53802 2.2 8.27396 2.55 8.08438C3.6 7.54271 4.69244 7.14323 5.82731 6.88594C6.96216 6.62865 8.11973 6.5 9.3 6.5C10.875 6.5 12.4063 6.73021 13.8938 7.19063C15.3813 7.65104 16.775 8.35521 18.075 9.30313C19.35 8.35521 20.7188 7.65104 22.1813 7.19063C23.6438 6.73021 25.15 6.5 26.7 6.5C27.8717 6.5 29.0209 6.62865 30.1475 6.88594C31.2742 7.14323 32.3625 7.54271 33.4125 8.08438C33.7625 8.27396 34.0313 8.53802 34.2188 8.87656C34.4063 9.2151 34.5 9.5875 34.5 9.99375V28.8031C34.5 29.5586 34.2188 30.1334 33.6563 30.5275C33.0938 30.9217 32.5375 30.9292 31.9875 30.55C31.1375 30.1708 30.2721 29.8661 29.3913 29.6359C28.5105 29.4057 27.6134 29.2906 26.7 29.2906C25.3431 29.2906 24.0164 29.5073 22.7199 29.9406C21.4233 30.374 20.2 30.9833 19.05 31.7688C18.925 31.8771 18.7784 31.9516 18.6101 31.9922C18.4418 32.0328 18.2635 32.0531 18.075 32.0531ZM21 14.3C21 14.1506 21.0503 13.9971 21.1509 13.8394C21.2515 13.6817 21.3637 13.5779 21.4875 13.5281C22.2375 13.2302 23.0042 13 23.7876 12.8375C24.571 12.675 25.3949 12.5938 26.2593 12.5938C26.7996 12.5938 27.3331 12.6276 27.8599 12.6953C28.3866 12.763 28.9 12.8646 29.4 13C29.55 13.0542 29.6875 13.1543 29.8125 13.3004C29.9375 13.4466 30 13.611 30 13.7936C30 14.1041 29.9063 14.3406 29.7188 14.5031C29.5313 14.6656 29.3 14.7063 29.025 14.625C28.605 14.4896 28.1625 14.388 27.6975 14.3203C27.2325 14.2526 26.75 14.2188 26.25 14.2188C25.525 14.2188 24.825 14.2932 24.15 14.4422C23.475 14.5911 22.8125 14.8146 22.1625 15.1125C21.8125 15.2479 21.5313 15.2411 21.3188 15.0922C21.1063 14.9432 21 14.6792 21 14.3ZM21 23.2375C21 23.0803 21.0503 22.9186 21.1509 22.7526C21.2515 22.5866 21.3637 22.4774 21.4875 22.425C22.2375 22.1271 23.0042 21.9036 23.7876 21.7547C24.571 21.6057 25.3949 21.5313 26.2593 21.5313C26.7996 21.5313 27.3331 21.5651 27.8599 21.6328C28.3866 21.7005 28.9 21.8021 29.4 21.9375C29.55 21.9917 29.6875 22.0918 29.8125 22.2379C29.9375 22.3841 30 22.5485 30 22.7311C30 23.0416 29.9063 23.2781 29.7188 23.4406C29.5313 23.6031 29.3 23.6438 29.025 23.5625C28.605 23.4271 28.1625 23.3255 27.6975 23.2578C27.2325 23.1901 26.75 23.1563 26.25 23.1563C25.525 23.1563 24.825 23.224 24.15 23.3594C23.475 23.4948 22.8125 23.7115 22.1625 24.0094C21.8125 24.1448 21.5313 24.1448 21.3188 24.0094C21.1063 23.874 21 23.6167 21 23.2375ZM21 18.7688C21 18.6194 21.0503 18.4658 21.1509 18.3081C21.2515 18.1504 21.3637 18.0467 21.4875 17.9969C22.2375 17.699 23.0042 17.4688 23.7876 17.3063C24.571 17.1438 25.3949 17.0625 26.2593 17.0625C26.7996 17.0625 27.3331 17.0964 27.8599 17.1641C28.3866 17.2318 28.9 17.3333 29.4 17.4688C29.55 17.5229 29.6875 17.6231 29.8125 17.7692C29.9375 17.9153 30 18.0797 30 18.2624C30 18.5729 29.9063 18.8094 29.7188 18.9719C29.5313 19.1344 29.3 19.175 29.025 19.0938C28.605 18.9583 28.1625 18.8568 27.6975 18.7891C27.2325 18.7214 26.75 18.6875 26.25 18.6875C25.525 18.6875 24.825 18.762 24.15 18.9109C23.475 19.0599 22.8125 19.2833 22.1625 19.5813C21.8125 19.7167 21.5313 19.7099 21.3188 19.5609C21.1063 19.412 21 19.1479 21 18.7688Z" fill="url(#paint0_linear_22_4)"/>
<defs>
<linearGradient id="paint0_linear_22_4" x1="18" y1="6.5" x2="18" y2="32.0531" gradientUnits="userSpaceOnUse">
<stop stop-color="#00A224"/>
<stop offset="1" stop-color="#007B1B"/>
</linearGradient>
</defs>
</svg>
