<svg width="247" height="39" viewBox="0 0 247 39" fill="none" xmlns="http://www.w3.org/2000/svg">
<path d="M21.25 3.3L20.4 9.15H8.2V17.45H18.85V23.2H8.2V32.05H21.25V37.95H0V3.3H21.25Z" fill="#9E9E9E"/>
<path d="M32.7789 38.8C30.4789 38.8 28.6789 38.15 27.3789 36.85C26.1122 35.5167 25.4789 33.6333 25.4789 31.2V0.850001L33.3789 0V30.9C33.3789 32 33.8289 32.55 34.7289 32.55C35.1956 32.55 35.6289 32.4667 36.0289 32.3L37.5789 37.9C36.1456 38.5 34.5456 38.8 32.7789 38.8Z" fill="#9E9E9E"/>
<path d="M63.4785 24.15C63.4785 25.25 63.4285 26.2 63.3285 27H46.8785C47.1452 29.2333 47.7785 30.8 48.7785 31.7C49.7785 32.6 51.1618 33.05 52.9285 33.05C53.9952 33.05 55.0285 32.8667 56.0285 32.5C57.0285 32.1 58.1118 31.5 59.2785 30.7L62.5285 35.1C59.4285 37.5667 55.9785 38.8 52.1785 38.8C47.8785 38.8 44.5785 37.5333 42.2785 35C39.9785 32.4667 38.8285 29.0667 38.8285 24.8C38.8285 22.1 39.3118 19.6833 40.2785 17.55C41.2452 15.3833 42.6618 13.6833 44.5285 12.45C46.3952 11.1833 48.6285 10.55 51.2285 10.55C55.0618 10.55 58.0618 11.75 60.2285 14.15C62.3952 16.55 63.4785 19.8833 63.4785 24.15ZM55.7285 21.9C55.6618 17.8333 54.2285 15.8 51.4285 15.8C50.0618 15.8 48.9952 16.3 48.2285 17.3C47.4952 18.3 47.0452 19.95 46.8785 22.25H55.7285V21.9Z" fill="#9E9E9E"/>
<path d="M84.5664 36.7C83.5997 37.3667 82.4664 37.8833 81.1664 38.25C79.8997 38.6167 78.6331 38.8 77.3664 38.8C71.5664 38.7667 68.6664 35.5667 68.6664 29.2V16.9H64.9164V11.4H68.6664V5.65L76.5664 4.75V11.4H82.6664L81.8164 16.9H76.5664V29.1C76.5664 30.3333 76.7664 31.2167 77.1664 31.75C77.5664 32.2833 78.1997 32.55 79.0664 32.55C79.9664 32.55 80.9164 32.2667 81.9164 31.7L84.5664 36.7Z" fill="#9E9E9E"/>
<path d="M101.604 10.65C102.57 10.65 103.454 10.7667 104.254 11L103.004 18.65C102.004 18.4167 101.204 18.3 100.604 18.3C99.0368 18.3 97.8369 18.85 97.0035 19.95C96.2035 21.0167 95.5702 22.6333 95.1035 24.8V37.95H87.2035V11.4H94.1035L94.7535 16.55C95.3535 14.7167 96.2535 13.2833 97.4535 12.25C98.6868 11.1833 100.07 10.65 101.604 10.65Z" fill="#9E9E9E"/>
<path d="M117.258 10.55C121.325 10.55 124.508 11.8 126.808 14.3C129.108 16.7667 130.258 20.2333 130.258 24.7C130.258 27.5333 129.725 30.0167 128.658 32.15C127.625 34.25 126.125 35.8833 124.158 37.05C122.225 38.2167 119.925 38.8 117.258 38.8C113.225 38.8 110.042 37.5667 107.708 35.1C105.408 32.6 104.258 29.1167 104.258 24.65C104.258 21.8167 104.775 19.35 105.808 17.25C106.875 15.1167 108.375 13.4667 110.308 12.3C112.275 11.1333 114.592 10.55 117.258 10.55ZM117.258 16.35C115.658 16.35 114.458 17.0333 113.658 18.4C112.858 19.7333 112.458 21.8167 112.458 24.65C112.458 27.55 112.842 29.6667 113.608 31C114.408 32.3333 115.625 33 117.258 33C118.858 33 120.058 32.3333 120.858 31C121.658 29.6333 122.058 27.5333 122.058 24.7C122.058 21.8 121.658 19.6833 120.858 18.35C120.092 17.0167 118.892 16.35 117.258 16.35Z" fill="#9E9E9E"/>
<path d="M158.807 3.3L158.007 9.6H149.457V37.95H141.257V9.6H132.307V3.3H158.807Z" fill="url(#paint0_linear_25_22)"/>
<path d="M182.375 24.15C182.375 25.25 182.325 26.2 182.225 27H165.775C166.042 29.2333 166.675 30.8 167.675 31.7C168.675 32.6 170.058 33.05 171.825 33.05C172.892 33.05 173.925 32.8667 174.925 32.5C175.925 32.1 177.008 31.5 178.175 30.7L181.425 35.1C178.325 37.5667 174.875 38.8 171.075 38.8C166.775 38.8 163.475 37.5333 161.175 35C158.875 32.4667 157.725 29.0667 157.725 24.8C157.725 22.1 158.208 19.6833 159.175 17.55C160.142 15.3833 161.558 13.6833 163.425 12.45C165.292 11.1833 167.525 10.55 170.125 10.55C173.958 10.55 176.958 11.75 179.125 14.15C181.292 16.55 182.375 19.8833 182.375 24.15ZM174.625 21.9C174.558 17.8333 173.125 15.8 170.325 15.8C168.958 15.8 167.892 16.3 167.125 17.3C166.392 18.3 165.942 19.95 165.775 22.25H174.625V21.9Z" fill="url(#paint1_linear_25_22)"/>
<path d="M198.313 10.55C200.146 10.55 201.796 10.8167 203.263 11.35C204.73 11.8833 206.113 12.7 207.413 13.8L204.013 18.5C202.346 17.2333 200.663 16.6 198.963 16.6C197.196 16.6 195.863 17.25 194.963 18.55C194.063 19.85 193.613 21.95 193.613 24.85C193.613 27.65 194.063 29.6333 194.963 30.8C195.863 31.9667 197.163 32.55 198.863 32.55C199.763 32.55 200.58 32.4167 201.313 32.15C202.046 31.85 202.93 31.3833 203.963 30.75L207.413 35.65C204.78 37.75 201.796 38.8 198.463 38.8C195.763 38.8 193.43 38.2333 191.463 37.1C189.496 35.9333 187.98 34.3167 186.913 32.25C185.846 30.15 185.313 27.7 185.313 24.9C185.313 22.1 185.846 19.6167 186.913 17.45C187.98 15.2833 189.496 13.6 191.463 12.4C193.43 11.1667 195.713 10.55 198.313 10.55Z" fill="url(#paint2_linear_25_22)"/>
<path d="M226.289 10.55C228.589 10.55 230.389 11.25 231.689 12.65C232.989 14.05 233.639 16.0167 233.639 18.55V37.95H225.739V19.9C225.739 18.5667 225.522 17.65 225.089 17.15C224.655 16.6167 224.039 16.35 223.239 16.35C221.639 16.35 220.105 17.4833 218.639 19.75V37.95H210.739V0.850001L218.639 0.0500023V14.25C219.739 13.0167 220.905 12.1 222.139 11.5C223.372 10.8667 224.755 10.55 226.289 10.55Z" fill="url(#paint3_linear_25_22)"/>
<path d="M242.496 29.75C243.729 29.75 244.779 30.2 245.646 31.1C246.546 31.9667 246.996 33.0167 246.996 34.25C246.996 35.5167 246.546 36.6 245.646 37.5C244.779 38.3667 243.729 38.8 242.496 38.8C241.229 38.8 240.146 38.3667 239.246 37.5C238.379 36.6 237.946 35.5167 237.946 34.25C237.946 33.0167 238.379 31.9667 239.246 31.1C240.146 30.2 241.229 29.75 242.496 29.75Z" fill="#9E9E9E"/>
<defs>
<linearGradient id="paint0_linear_25_22" x1="123.498" y1="0" x2="123.498" y2="38.8" gradientUnits="userSpaceOnUse">
<stop stop-color="#00A224"/>
<stop offset="1" stop-color="#007B1B"/>
</linearGradient>
<linearGradient id="paint1_linear_25_22" x1="123.498" y1="0" x2="123.498" y2="38.8" gradientUnits="userSpaceOnUse">
<stop stop-color="#00A224"/>
<stop offset="1" stop-color="#007B1B"/>
</linearGradient>
<linearGradient id="paint2_linear_25_22" x1="123.498" y1="0" x2="123.498" y2="38.8" gradientUnits="userSpaceOnUse">
<stop stop-color="#00A224"/>
<stop offset="1" stop-color="#007B1B"/>
</linearGradient>
<linearGradient id="paint3_linear_25_22" x1="123.498" y1="0" x2="123.498" y2="38.8" gradientUnits="userSpaceOnUse">
<stop stop-color="#00A224"/>
<stop offset="1" stop-color="#007B1B"/>
</linearGradient>
</defs>
</svg>
